<?xml version="1.0" encoding="UTF-8" standalone="no"?>
<!-- Filename: c9d188d28774152aaedea5dfb8f0e1e2a3f4f39e7202b1de8eeef9166db6b8bd.svg -->
<!-- Created with https://svgstud.io -->
<svg
  version="1.1"
  xmlns="http://www.w3.org/2000/svg"
  xmlns:xlink="http://www.w3.org/1999/xlink"
  xmlns:svg="http://www.w3.org/2000/svg"
  xmlns:rdf="http://www.w3.org/1999/02/22-rdf-syntax-ns#"
  xmlns:cc="http://creativecommons.org/ns#"
  xmlns:dc="http://purl.org/dc/elements/1.1/"
  viewBox="0 0 768 768"
  width="768"
  height="768"
  role="img"
  aria-labelledby="titleID descID"
>
  <title id="titleID">MAKE IT COLOR</title>
  <desc id="descID">AI-generated SVG illustration: MAKE IT COLOR, created on https://svgstud.io</desc>

  <rect width="100%" height="100%" fill="white" />

  <metadata>
    Created by https://svgstud.io and licensed under CC-BY-SA 4.0 license. Please attribute https://svgstud.io
  </metadata>
  <metadata>
    MAKE IT COLOR
  </metadata>
  <metadata>
    7
  </metadata>
  <metadata>
    <rdf:RDF
      xmlns:rdf="http://www.w3.org/1999/02/22-rdf-syntax-ns#"
      xmlns:cc="http://creativecommons.org/ns#"
      xmlns:dc="http://purl.org/dc/elements/1.1/"
    >
      <cc:Work rdf:about="">
        <cc:license rdf:resource="http://creativecommons.org/licenses/by-sa/4.0/" />
        <dc:creator>
          <cc:Agent>
            <dc:title>https://svgstud.io</dc:title>
          </cc:Agent>
        </dc:creator>
      </cc:Work>
      <cc:License rdf:about="http://creativecommons.org/licenses/by-sa/4.0/">
        <cc:permits rdf:resource="http://creativecommons.org/ns#Reproduction" />
        <cc:permits rdf:resource="http://creativecommons.org/ns#Distribution" />
        <cc:requires rdf:resource="http://creativecommons.org/ns#Notice" />
        <cc:requires rdf:resource="http://creativecommons.org/ns#Attribution" />
        <cc:permits rdf:resource="http://creativecommons.org/ns#DerivativeWorks" />
        <cc:requires rdf:resource="http://creativecommons.org/ns#ShareAlike" />
      </cc:License>
    </rdf:RDF>
  </metadata>
  <metadata id="uid">c9d188d28774152aaedea5dfb8f0e1e2a3f4f39e7202b1de8eeef9166db6b8bd</metadata>

  <path stroke="none" fill="black" fill-rule="evenodd" d="M224.64,685.87C214.66,685.80 203.35,685.37 199.50,684.91C195.65,684.45 188.90,683.16 184.50,682.03C180.10,680.91 172.38,678.01 167.34,675.58C162.30,673.16 153.98,668.37 148.84,664.93C143.70,661.50 135.90,655.89 131.50,652.48C127.10,649.06 121.43,644.04 118.90,641.33C116.36,638.62 113.12,634.62 111.68,632.45C110.25,630.28 108.37,626.48 107.50,624.02C106.63,621.55 105.28,613.90 104.50,607.02C103.71,600.13 102.61,582.12 102.05,567.00C101.49,551.88 100.79,531.17 100.50,521.00C100.20,510.82 99.49,467.40 98.93,424.50C98.07,359.67 97.63,345.49 96.34,340.50C95.37,336.74 94.96,332.08 95.25,328.00C95.56,323.55 96.59,319.76 98.50,316.00C100.95,311.18 101.40,308.85 102.12,297.23C102.57,289.93 103.39,282.26 103.95,280.18C104.51,278.11 105.89,275.42 107.02,274.21C108.15,272.99 110.83,271.11 112.96,270.02C115.10,268.93 120.15,267.15 124.18,266.07C128.20,265.00 134.12,263.81 137.33,263.43C140.54,263.06 143.29,262.24 143.46,261.62C143.63,261.01 144.21,256.99 144.77,252.70C145.39,247.91 146.44,244.17 147.50,243.00C148.45,241.94 151.99,240.18 155.37,239.08C158.74,237.98 165.55,236.41 170.50,235.58C175.45,234.76 185.12,233.58 192.00,232.96C198.88,232.34 207.88,232.12 212.00,232.46C216.12,232.81 223.32,233.79 228.00,234.64C235.84,236.06 237.78,236.03 252.94,234.34C269.39,232.50 269.39,232.50 279.81,214.50C285.54,204.60 294.52,188.40 299.77,178.50C305.02,168.60 310.59,158.44 312.15,155.92C313.71,153.41 316.65,149.68 318.69,147.64C321.34,144.99 324.26,143.39 328.95,142.01C332.55,140.95 338.88,139.62 343.00,139.04C347.12,138.46 357.93,137.30 367.00,136.46C376.07,135.61 394.52,134.65 408.00,134.32C423.87,133.93 436.73,134.14 444.50,134.90C451.10,135.55 459.20,136.77 462.50,137.61C465.80,138.46 470.34,140.22 472.58,141.52C474.83,142.82 478.37,145.78 480.46,148.09C482.55,150.40 485.49,155.04 487.00,158.40C488.51,161.75 492.79,173.16 496.51,183.75C500.24,194.34 503.78,203.66 504.39,204.45C505.00,205.24 506.17,206.03 506.98,206.20C508.21,206.45 508.65,203.84 509.53,191.26C510.42,178.49 510.92,175.58 512.65,173.26C513.78,171.74 516.05,169.71 517.70,168.75C519.34,167.79 524.25,166.02 528.59,164.81C535.44,162.92 539.13,162.62 556.00,162.58C568.40,162.55 577.69,163.01 581.50,163.83C584.80,164.54 590.33,166.04 593.78,167.16C597.24,168.27 601.39,170.30 603.01,171.67C604.69,173.07 606.43,175.89 607.04,178.16C607.83,181.08 607.80,186.45 606.95,197.68C606.21,207.57 606.13,213.53 606.74,214.14C607.27,214.67 614.40,216.83 622.60,218.95C630.79,221.06 639.98,223.78 643.00,224.98C646.02,226.18 650.08,228.34 652.00,229.79C653.92,231.23 656.09,233.11 656.80,233.96C657.52,234.81 658.72,236.85 659.46,238.51C660.24,240.23 661.33,248.98 662.01,259.01C662.98,273.33 662.90,283.57 661.62,315.50C660.75,336.95 659.26,370.33 658.31,389.69C656.88,418.77 656.79,426.75 657.79,435.73C658.46,441.70 658.99,452.87 658.97,460.55C658.95,468.22 658.28,479.90 657.47,486.50C656.66,493.10 655.54,508.18 654.98,520.00C654.41,531.83 653.27,546.15 652.42,551.83C651.58,557.50 649.61,565.93 648.04,570.56C646.46,575.18 643.09,582.11 640.53,585.95C637.97,589.80 634.00,594.59 631.69,596.60C629.39,598.60 624.71,601.57 621.30,603.19C617.90,604.81 610.92,606.96 605.80,607.97C600.69,608.98 594.80,610.10 592.71,610.46C589.99,610.92 587.04,612.81 582.21,617.19C578.52,620.54 572.19,625.51 568.14,628.24C564.10,630.97 558.38,634.27 555.44,635.57C552.50,636.87 546.36,638.94 541.80,640.16C535.02,641.99 530.75,642.40 518.50,642.45C510.25,642.48 499.68,642.11 495.00,641.62C487.57,640.86 484.67,641.09 472.00,643.50C464.02,645.01 422.85,653.14 380.50,661.57C338.15,670.00 294.50,678.48 283.50,680.42C272.50,682.36 258.84,684.41 253.14,684.97C247.45,685.54 234.62,685.94 224.64,685.87zM224.19,653.91C238.78,653.98 244.38,653.57 256.19,651.52C264.06,650.16 284.90,646.15 302.50,642.61C320.10,639.08 348.45,633.23 365.50,629.63C382.55,626.03 407.30,620.83 420.50,618.07C433.70,615.31 452.38,611.27 462.00,609.09C471.62,606.91 482.14,604.31 485.37,603.31C488.59,602.32 491.29,601.10 491.37,600.60C491.44,600.11 489.71,599.08 487.53,598.33C485.22,597.53 475.49,596.55 464.29,595.99C453.69,595.46 441.75,594.29 437.76,593.39C433.77,592.48 427.35,590.36 423.50,588.66C419.65,586.97 412.87,583.46 408.44,580.87C404.01,578.27 396.81,573.26 392.43,569.73C388.06,566.20 381.74,560.20 378.40,556.40C375.06,552.61 369.83,545.90 366.78,541.50C363.73,537.10 359.61,530.25 357.62,526.28C355.63,522.31 352.85,515.60 351.42,511.37C350.00,507.14 348.25,500.49 347.52,496.59C346.79,492.69 345.89,485.00 345.53,479.50C345.17,474.00 345.36,464.32 345.97,458.00C346.58,451.68 348.01,442.45 349.17,437.50C350.32,432.55 352.60,424.68 354.23,420.00C355.86,415.32 359.18,407.68 361.59,403.00C364.00,398.32 367.13,393.15 368.54,391.50C371.09,388.50 371.09,388.50 369.69,391.50C368.92,393.15 365.77,401.48 362.70,410.00C359.62,418.52 356.21,429.10 355.12,433.50C354.03,437.90 352.59,445.27 351.93,449.87C351.17,455.22 350.93,464.44 351.27,475.37C351.67,487.94 352.33,494.37 353.76,499.50C354.84,503.35 356.44,508.07 357.32,510.00C358.85,513.33 358.89,512.81 358.21,499.00C357.82,491.02 357.58,478.61 357.68,471.41C357.77,464.21 358.61,453.87 359.54,448.43C360.46,442.99 363.02,432.46 365.21,425.02C367.40,417.58 371.34,406.68 373.97,400.79C376.59,394.90 381.74,385.58 385.40,380.08C389.06,374.57 394.86,367.24 398.28,363.77C401.70,360.31 407.65,354.94 411.50,351.85C415.35,348.76 421.62,344.34 425.44,342.02C429.25,339.69 435.78,336.32 439.94,334.52C444.10,332.71 450.43,330.30 454.00,329.15C457.57,327.99 464.50,326.37 469.38,325.53C474.27,324.69 482.82,324.01 488.38,324.02C493.95,324.03 501.65,324.49 505.50,325.03C509.35,325.58 516.29,326.97 520.93,328.13C525.57,329.28 532.91,331.71 537.24,333.54C541.57,335.37 548.55,339.01 552.76,341.63C556.97,344.26 563.62,349.44 567.53,353.16C571.44,356.87 575.88,360.38 577.39,360.96C578.90,361.53 581.00,362.00 582.07,362.00C583.13,362.00 583.99,361.44 583.98,360.75C583.97,360.06 579.49,355.49 574.04,350.59C568.58,345.69 560.38,339.00 555.81,335.73C551.24,332.45 541.20,326.69 533.50,322.93C525.80,319.17 515.43,314.74 510.46,313.08C505.49,311.43 497.16,309.33 491.96,308.42C484.85,307.17 479.27,306.91 469.50,307.34C461.09,307.72 452.79,308.79 446.00,310.37C440.23,311.72 432.12,314.04 428.00,315.54C423.88,317.03 416.57,320.22 411.76,322.63C406.95,325.04 399.97,328.87 396.26,331.15C392.54,333.42 386.80,337.34 383.50,339.86C380.20,342.38 373.10,348.70 367.72,353.91C362.34,359.11 354.63,367.68 350.58,372.95C346.54,378.23 341.09,386.08 338.46,390.41C335.83,394.73 331.75,402.66 329.39,408.03C327.03,413.40 323.95,421.77 322.56,426.64C321.16,431.51 319.34,440.00 318.51,445.50C317.69,451.00 317.01,459.32 317.01,464.00C317.01,468.68 317.50,476.55 318.11,481.50C318.72,486.45 320.31,494.32 321.66,499.00C323.00,503.68 326.54,512.45 329.52,518.50C332.50,524.55 337.83,533.34 341.37,538.02C344.90,542.71 352.46,551.04 358.17,556.52C363.87,562.01 372.58,569.26 377.52,572.62C382.46,575.99 390.55,580.75 395.50,583.20C400.45,585.66 406.98,588.61 410.00,589.78C413.02,590.94 419.10,592.86 423.50,594.04C427.90,595.22 431.86,596.53 432.30,596.95C432.75,597.37 429.60,598.27 425.30,598.95C421.01,599.63 396.80,603.96 371.50,608.57C346.20,613.18 315.60,618.79 303.50,621.02C291.40,623.26 274.52,626.27 266.00,627.71C253.16,629.88 247.16,630.34 231.00,630.41C219.71,630.46 207.74,629.94 202.57,629.18C197.66,628.47 189.48,626.55 184.40,624.92C179.31,623.29 169.55,619.07 162.71,615.55C155.87,612.03 145.37,606.24 139.39,602.68C133.40,599.13 124.99,593.70 120.70,590.62C116.42,587.54 111.96,584.51 110.80,583.89C108.69,582.76 108.69,582.80 109.36,593.09C109.79,599.63 110.67,604.72 111.77,606.96C112.87,609.22 116.03,612.25 120.50,615.33C124.35,617.99 132.45,623.12 138.50,626.75C144.55,630.37 155.05,636.19 161.83,639.66C168.62,643.14 177.84,647.12 182.33,648.50C186.83,649.88 194.10,651.64 198.50,652.41C203.17,653.23 213.86,653.86 224.19,653.91zM237.23,624.75C244.66,624.45 250.65,623.75 251.28,623.12C252.09,622.31 252.02,598.07 251.02,532.75C250.27,483.66 249.40,424.38 249.08,401.00C248.50,358.50 248.50,358.50 245.50,358.70C243.85,358.80 237.66,359.19 231.75,359.54C221.00,360.19 221.00,360.19 221.04,421.35C221.06,454.98 221.48,514.10 221.96,552.72C222.45,591.34 223.17,623.47 223.57,624.11C224.08,624.95 227.95,625.13 237.23,624.75zM211.62,623.91C217.73,624.00 217.73,624.00 217.31,493.75C217.08,422.11 216.69,362.53 216.45,361.34C216.05,359.41 215.14,359.10 208.25,358.53C203.99,358.18 194.65,357.09 187.50,356.10C180.35,355.10 174.10,354.52 173.61,354.79C173.09,355.09 172.96,386.71 173.30,430.40C173.63,471.70 174.39,529.58 174.99,559.00C175.99,607.75 176.24,612.72 177.87,615.00C178.91,616.45 181.89,618.25 184.94,619.28C187.84,620.25 193.66,621.68 197.86,622.44C202.06,623.20 208.25,623.86 211.62,623.91zM535.67,602.38C540.71,602.11 548.50,601.02 552.98,599.94C557.47,598.87 564.54,596.42 568.70,594.50C572.86,592.58 580.14,588.43 584.88,585.28C589.62,582.14 597.43,575.78 602.24,571.15C607.04,566.53 614.07,558.64 617.85,553.62C621.63,548.60 626.57,541.49 628.82,537.81C631.07,534.13 634.00,528.95 635.33,526.31C636.66,523.66 639.37,517.16 641.35,511.86C643.33,506.56 646.04,498.01 647.38,492.86C648.72,487.71 650.34,478.30 651.00,471.95C651.88,463.38 651.91,457.62 651.11,449.67C650.52,443.77 649.09,435.25 647.94,430.73C646.79,426.20 644.09,418.75 641.94,414.16C639.80,409.57 636.06,403.03 633.63,399.63C631.20,396.23 626.06,390.46 622.19,386.82C618.32,383.17 612.08,378.37 608.33,376.16C604.57,373.95 598.58,371.15 595.00,369.95C591.42,368.75 584.45,367.14 579.50,366.39C573.93,365.54 562.12,365.01 548.50,365.01C530.13,365.01 525.18,365.33 518.50,366.96C514.10,368.02 507.17,370.04 503.10,371.44C499.02,372.84 492.72,375.61 489.10,377.60C485.47,379.59 479.69,383.21 476.26,385.65C472.83,388.09 467.24,392.65 463.84,395.79C460.43,398.93 454.33,405.96 450.26,411.40C446.20,416.85 440.45,426.30 437.47,432.40C434.50,438.51 430.72,447.57 429.07,452.54C427.42,457.51 425.31,465.84 424.38,471.04C423.24,477.38 422.67,485.94 422.66,497.00C422.65,508.16 423.18,516.48 424.31,522.69C425.23,527.75 427.34,535.60 428.99,540.14C430.65,544.67 433.85,551.50 436.11,555.31C438.38,559.12 443.38,565.55 447.23,569.61C452.29,574.93 456.19,577.96 461.25,580.49C465.11,582.42 469.11,584.00 470.13,584.00C471.16,584.00 472.00,583.76 472.00,583.46C472.00,583.16 469.11,579.37 465.59,575.03C462.06,570.70 457.31,563.40 455.04,558.82C452.08,552.83 450.22,547.10 448.47,538.49C446.95,531.06 446.02,523.07 446.01,517.50C446.01,512.55 446.47,503.55 447.04,497.50C447.63,491.21 449.37,482.02 451.09,476.04C452.75,470.29 455.89,460.86 458.07,455.08C460.25,449.30 463.21,442.86 464.65,440.78C466.09,438.70 467.48,437.00 467.74,437.00C468.00,437.00 467.93,438.14 467.58,439.54C467.23,440.93 465.56,445.09 463.86,448.79C462.17,452.48 459.29,460.00 457.47,465.50C455.65,471.00 453.42,479.95 452.51,485.39C451.52,491.32 450.86,500.87 450.87,509.21C450.88,516.86 451.40,525.68 452.02,528.81C452.65,531.94 454.07,537.65 455.19,541.50C456.31,545.35 458.71,551.44 460.52,555.03C462.33,558.63 466.50,565.20 469.80,569.65C473.09,574.09 479.32,580.71 483.64,584.36C487.96,588.00 494.43,592.51 498.00,594.37C501.57,596.23 506.77,598.49 509.54,599.39C512.31,600.28 517.26,601.44 520.54,601.95C523.82,602.46 530.63,602.65 535.67,602.38zM536.09,580.89C531.37,580.83 525.70,580.42 523.50,579.98C521.30,579.54 516.92,578.21 513.76,577.02C510.61,575.84 505.29,573.04 501.94,570.80C498.59,568.57 493.56,563.98 490.75,560.62C487.95,557.25 483.75,550.45 481.43,545.50C479.11,540.55 476.39,533.35 475.38,529.50C474.02,524.26 473.56,518.73 473.54,507.50C473.52,496.59 474.01,490.32 475.32,484.50C476.32,480.10 478.28,472.90 479.69,468.50C481.10,464.10 484.27,456.45 486.74,451.50C489.21,446.55 493.54,439.12 496.35,435.00C499.16,430.88 505.54,423.45 510.53,418.50C515.53,413.55 522.74,407.42 526.56,404.87C530.37,402.33 536.74,398.62 540.71,396.63C544.67,394.64 551.42,392.03 555.71,390.82C561.24,389.26 566.40,388.61 573.50,388.56C579.27,388.53 585.61,389.10 588.50,389.91C591.25,390.68 596.20,392.66 599.50,394.29C603.31,396.17 608.12,399.92 612.67,404.53C618.04,409.98 620.86,413.91 623.88,420.15C626.10,424.74 628.61,431.20 629.47,434.50C630.32,437.80 631.52,444.55 632.13,449.50C632.75,454.54 632.96,462.90 632.60,468.50C632.25,474.00 630.89,483.28 629.57,489.11C628.25,494.95 625.34,504.41 623.10,510.13C620.86,515.85 616.79,524.18 614.04,528.64C611.30,533.10 604.47,541.86 598.86,548.12C593.25,554.38 585.93,561.71 582.58,564.41C579.24,567.11 572.90,571.04 568.50,573.15C564.10,575.26 556.94,577.88 552.59,578.99C547.39,580.31 541.73,580.96 536.09,580.89zM436.37,576.93C439.17,577.00 439.08,576.83 432.86,570.24C429.35,566.52 424.60,560.66 422.31,557.22C420.01,553.78 417.17,548.40 416.00,545.27C414.83,542.13 412.81,535.91 411.51,531.44C410.12,526.64 408.70,517.82 408.03,509.83C407.20,499.90 407.19,493.46 408.00,485.42C408.61,479.41 410.01,470.36 411.10,465.29C412.20,460.23 414.14,453.03 415.42,449.29C416.70,445.56 419.60,438.50 421.87,433.61C424.14,428.72 426.00,424.36 426.00,423.93C426.00,423.49 424.99,422.82 423.75,422.43C422.51,422.04 419.25,420.25 416.50,418.46C413.75,416.66 408.80,412.65 405.50,409.55C399.50,403.92 399.50,403.92 412.50,404.56C419.65,404.91 427.30,405.57 429.50,406.02C431.70,406.48 434.48,407.15 435.67,407.52C437.45,408.07 439.41,406.69 446.42,399.96C451.14,395.43 455.00,391.35 455.00,390.89C455.00,390.44 452.41,388.15 449.25,385.82C446.09,383.48 441.59,379.81 439.25,377.66C436.91,375.51 435.00,372.90 435.00,371.87C435.00,370.84 435.47,370.00 436.05,370.00C436.63,370.00 438.76,371.13 440.79,372.50C442.81,373.88 445.22,375.00 446.15,375.00C447.08,375.00 450.69,374.27 454.17,373.37C458.83,372.18 462.67,371.92 468.75,372.38C473.82,372.77 477.00,372.64 477.00,372.05C477.00,371.52 475.00,366.91 472.57,361.81C470.13,356.71 468.26,352.41 468.41,352.25C468.57,352.10 469.99,352.99 471.57,354.24C474.18,356.29 475.35,356.47 483.98,356.20C493.37,355.91 493.58,355.96 499.46,359.51C504.37,362.47 506.04,363.00 508.98,362.50C510.94,362.17 513.21,361.49 514.02,360.98C515.29,360.18 515.04,358.76 512.31,351.03C509.70,343.63 509.40,342.00 510.66,342.00C511.50,342.00 513.61,342.98 515.35,344.19C517.08,345.39 521.13,348.54 524.34,351.19C530.17,356.00 530.17,356.00 539.00,356.00C543.85,356.00 551.35,356.67 555.66,357.50C559.97,358.32 564.77,359.00 566.33,359.00C568.15,359.00 569.02,358.55 568.75,357.75C568.53,357.06 564.55,353.90 559.92,350.72C555.29,347.53 547.90,343.17 543.50,341.02C539.10,338.87 532.12,336.17 528.00,335.02C523.88,333.86 516.00,332.66 510.50,332.34C503.39,331.93 497.76,332.24 491.04,333.42C485.84,334.33 477.64,336.39 472.84,338.00C468.03,339.61 460.37,342.80 455.83,345.09C451.28,347.37 443.72,351.84 439.03,355.01C434.34,358.18 427.07,363.71 422.87,367.31C418.67,370.91 412.05,377.47 408.16,381.89C404.27,386.30 398.78,393.40 395.95,397.67C393.12,401.94 389.44,408.15 387.77,411.46C386.09,414.78 383.89,419.93 382.86,422.90C381.84,425.88 381.00,429.52 381.00,431.00C381.00,432.48 381.79,434.39 382.75,435.23C383.71,436.08 389.39,440.02 395.36,443.98C402.79,448.91 405.89,451.51 405.19,452.21C404.49,452.91 399.98,452.87 390.93,452.07C381.49,451.23 377.39,451.21 376.62,451.98C376.03,452.57 375.38,457.69 375.17,463.36C374.79,473.67 374.79,473.67 385.56,479.62C391.48,482.90 396.80,486.32 397.38,487.24C397.96,488.16 398.07,489.26 397.63,489.70C397.20,490.14 392.04,490.60 386.17,490.72C375.50,490.93 375.50,490.93 375.67,498.96C375.78,504.44 376.42,508.19 377.67,510.75C379.32,514.14 380.50,514.91 389.91,518.71C395.63,521.02 400.78,523.38 401.34,523.94C401.90,524.50 402.09,525.24 401.76,525.57C401.43,525.90 399.44,526.57 397.33,527.06C395.22,527.55 391.39,527.96 388.81,527.98C386.23,527.99 383.82,528.48 383.46,529.07C383.09,529.66 384.20,533.00 385.92,536.48C387.64,539.97 390.59,544.19 392.49,545.86C394.39,547.53 397.65,549.36 399.72,549.94C401.80,550.52 405.07,551.00 407.00,551.01C408.93,551.02 411.16,551.45 411.97,551.96C412.78,552.47 413.13,553.21 412.74,553.59C412.36,553.97 409.78,554.51 407.02,554.77C404.26,555.04 402.01,555.53 402.03,555.88C402.05,556.22 402.61,557.20 403.28,558.06C403.95,558.92 407.11,561.73 410.30,564.32C413.49,566.90 418.42,570.19 421.27,571.64C424.11,573.08 428.03,574.84 429.97,575.56C431.91,576.27 434.79,576.89 436.37,576.93zM536.50,574.54C540.90,574.30 548.55,572.93 553.50,571.49C558.45,570.05 567.38,566.31 573.35,563.19C579.51,559.95 586.73,555.21 590.06,552.20C593.62,548.99 597.97,543.52 601.11,538.32C603.96,533.60 607.14,527.49 608.19,524.75C609.23,522.00 609.80,519.47 609.46,519.13C609.11,518.78 607.70,519.85 606.32,521.50C604.93,523.15 599.51,529.38 594.26,535.35C589.01,541.31 581.84,548.57 578.32,551.46C574.81,554.36 569.13,558.14 565.72,559.85C562.30,561.57 556.61,563.70 553.07,564.59C548.39,565.77 543.75,566.09 536.07,565.76C526.24,565.35 524.83,565.01 516.00,561.04C510.77,558.68 503.16,554.55 499.07,551.86C494.98,549.16 491.28,547.08 490.85,547.23C490.41,547.38 491.06,549.50 492.28,551.94C493.50,554.39 496.89,558.76 499.82,561.66C502.75,564.55 507.50,568.07 510.38,569.48C513.26,570.89 518.52,572.71 522.06,573.51C526.06,574.42 531.53,574.81 536.50,574.54zM615.39,571.00C615.61,571.00 618.69,570.10 622.24,569.01C625.79,567.91 631.70,565.65 635.37,563.99C639.96,561.91 642.66,559.97 643.97,557.81C645.02,556.08 646.11,553.05 646.40,551.08C646.68,549.11 647.21,544.69 647.56,541.25C648.08,536.15 647.93,535.00 646.74,535.00C645.94,535.00 643.26,536.78 640.80,538.95C638.33,541.12 633.66,546.18 630.42,550.20C627.18,554.21 622.39,559.95 619.77,562.95C617.14,565.95 615.00,568.98 615.00,569.70C615.00,570.41 615.18,571.00 615.39,571.00zM523.95,559.73C526.03,559.53 526.79,558.38 529.06,552.00C530.53,547.88 533.37,541.14 535.37,537.03C537.37,532.92 539.00,528.98 539.00,528.28C539.00,527.44 537.53,527.00 534.75,527.00C532.15,527.00 528.17,525.89 524.50,524.15C521.20,522.58 516.53,519.64 514.12,517.61C511.71,515.59 509.54,514.12 509.31,514.35C509.08,514.58 507.90,518.01 506.70,521.97C505.49,525.92 504.05,529.21 503.50,529.27C502.95,529.33 500.52,525.48 498.10,520.72C495.69,515.96 493.30,512.32 492.79,512.63C492.29,512.94 492.17,515.72 492.53,518.85C492.89,521.96 493.81,527.32 494.58,530.77C495.35,534.22 496.95,538.95 498.13,541.27C499.32,543.60 501.40,546.96 502.75,548.73C504.11,550.51 506.77,552.93 508.67,554.11C510.57,555.28 514.24,557.08 516.81,558.10C519.39,559.12 522.60,559.85 523.95,559.73zM440.68,533.97C438.93,533.96 436.28,533.19 434.80,532.27C433.31,531.35 431.31,529.13 430.34,527.34C429.38,525.55 428.92,523.75 429.32,523.35C429.72,522.95 432.17,523.38 434.77,524.32C437.37,525.25 440.27,526.01 441.21,526.00C442.16,526.00 443.42,526.92 444.02,528.04C444.62,529.16 444.83,530.96 444.49,532.04C444.04,533.45 442.98,533.99 440.68,533.97zM540.12,509.67C546.15,509.41 548.66,508.80 552.20,506.73C554.66,505.29 558.37,502.23 560.45,499.93C562.53,497.62 565.40,493.21 566.82,490.12C568.89,485.64 569.50,482.55 569.82,474.89C570.11,468.04 569.77,463.70 568.63,459.81C567.76,456.81 565.42,451.88 563.44,448.87C561.46,445.86 557.65,441.91 554.98,440.08C551.89,437.98 548.45,436.58 545.55,436.25C542.56,435.92 539.46,436.32 536.59,437.41C533.97,438.41 530.19,441.22 527.20,444.38C524.45,447.29 520.86,452.34 519.23,455.59C517.61,458.84 515.56,463.75 514.69,466.50C513.82,469.25 512.81,473.58 512.46,476.11C512.04,479.10 512.39,482.97 513.44,487.08C514.34,490.57 516.43,495.55 518.09,498.14C519.75,500.73 522.64,504.01 524.51,505.44C526.38,506.86 528.94,508.47 530.20,509.01C531.47,509.55 535.93,509.85 540.12,509.67zM439.55,491.96C438.42,491.94 436.10,491.31 434.38,490.56C432.66,489.82 430.52,488.16 429.63,486.88C428.73,485.60 428.00,483.69 428.00,482.64C428.00,480.91 428.52,480.79 433.44,481.36C436.43,481.72 440.03,482.44 441.44,482.98C443.35,483.70 444.00,484.66 444.00,486.78C444.00,488.33 443.46,490.14 442.80,490.80C442.14,491.46 440.68,491.98 439.55,491.96zM499.50,472.63C506.50,472.50 506.50,472.50 509.82,464.07C511.64,459.44 515.08,452.64 517.46,448.96C519.84,445.28 526.81,436.98 532.94,430.52C539.08,424.05 547.23,415.05 551.05,410.51C554.87,405.97 558.00,401.92 558.00,401.52C558.00,401.11 556.31,401.09 554.25,401.48C552.19,401.86 546.90,404.04 542.50,406.32C538.10,408.61 531.10,413.04 526.95,416.16C522.79,419.29 516.21,425.20 512.32,429.30C508.43,433.39 503.38,439.49 501.10,442.85C498.82,446.21 494.94,453.10 492.48,458.16C490.01,463.22 488.00,468.37 488.00,469.61C488.00,471.14 488.72,472.01 490.25,472.31C491.49,472.56 495.65,472.71 499.50,472.63zM585.95,468.00C586.47,468.00 588.01,466.54 589.37,464.75C590.73,462.96 592.95,459.25 594.31,456.50C595.66,453.75 597.06,449.47 597.41,446.98C597.78,444.35 597.45,439.28 596.60,434.87C595.81,430.70 593.80,424.30 592.14,420.65C590.48,416.99 589.53,414.00 590.03,414.00C590.52,414.00 593.17,416.70 595.92,420.00C598.66,423.29 602.79,429.21 605.08,433.14C608.53,439.04 609.42,439.99 610.21,438.59C610.73,437.66 610.85,435.09 610.48,432.89C610.11,430.68 608.28,425.82 606.41,422.09C604.28,417.84 600.95,413.35 597.51,410.10C594.48,407.23 589.52,403.79 586.47,402.45C583.43,401.10 579.04,400.00 576.72,400.01C573.90,400.02 570.81,400.99 567.40,402.94C564.60,404.55 560.21,408.19 557.65,411.04C555.09,413.89 553.00,416.80 553.00,417.51C553.00,418.23 555.44,420.19 558.43,421.87C561.42,423.56 565.44,426.33 567.38,428.02C569.31,429.72 572.64,433.90 574.77,437.31C576.90,440.71 579.44,445.52 580.42,448.00C581.39,450.48 582.82,455.80 583.59,459.84C584.37,463.87 585.00,467.36 585.00,467.59C585.00,467.81 585.43,468.00 585.95,468.00zM453.41,450.00C453.16,450.00 450.94,448.14 448.48,445.87C446.01,443.60 444.00,441.35 444.00,440.87C444.00,440.39 444.93,440.00 446.06,440.00C447.19,440.00 450.11,440.50 452.56,441.12C456.21,442.04 457.00,442.65 457.00,444.55C457.00,445.82 456.29,447.56 455.43,448.43C454.56,449.29 453.65,450.00 453.41,450.00zM472.91,423.00C472.37,423.00 471.67,422.30 471.34,421.44C471.01,420.59 471.14,419.06 471.62,418.06C472.10,417.05 475.39,413.92 478.91,411.11C482.44,408.30 485.95,406.00 486.71,406.00C487.64,406.00 487.83,406.49 487.27,407.48C486.81,408.30 483.61,412.12 480.16,415.98C476.70,419.84 473.44,423.00 472.91,423.00zM648.10,410.00C648.51,410.00 649.09,408.76 649.40,407.25C649.70,405.74 650.62,391.68 651.44,376.00C652.27,360.32 653.41,335.57 653.99,321.00C654.57,306.43 655.26,293.20 655.53,291.61C655.79,290.02 655.53,288.14 654.94,287.43C654.15,286.48 653.14,286.41 651.00,287.15C649.41,287.70 647.63,288.74 647.04,289.45C646.41,290.21 645.36,303.39 644.47,321.62C643.64,338.60 642.56,362.00 642.06,373.62C641.56,385.23 641.51,396.31 641.94,398.24C642.38,400.18 643.78,403.61 645.05,405.88C646.33,408.14 647.70,410.00 648.10,410.00zM504.25,394.88C503.01,395.53 502.00,395.68 502.00,395.21C502.00,394.74 503.01,393.46 504.25,392.37C505.49,391.28 508.30,389.25 510.50,387.85C512.70,386.45 515.96,384.55 517.75,383.63C519.54,382.70 521.00,382.18 521.00,382.47C521.00,382.75 517.74,385.39 513.75,388.33C509.76,391.28 505.49,394.22 504.25,394.88zM301.64,393.58C306.03,393.34 309.25,392.44 312.99,390.41C315.86,388.85 319.53,385.98 321.14,384.03C322.75,382.09 325.28,378.02 326.76,375.00C329.03,370.36 329.46,368.17 329.48,361.00C329.50,354.12 329.06,351.61 327.20,347.84C325.94,345.27 323.03,341.04 320.73,338.44C318.44,335.83 314.79,332.41 312.63,330.85C310.47,329.28 308.09,328.00 307.35,328.00C306.34,328.00 306.00,329.84 306.00,335.34C306.00,342.67 306.00,342.67 300.04,345.24C295.86,347.05 293.47,348.81 292.04,351.16C290.92,353.00 289.71,356.06 289.35,357.96C288.99,359.86 289.24,363.46 289.91,365.96C290.58,368.46 292.11,371.56 293.31,372.85C294.52,374.13 296.72,375.82 298.20,376.60C299.69,377.37 302.47,378.00 304.39,378.00C306.30,378.00 309.14,377.52 310.68,376.93C312.23,376.35 314.57,374.88 315.88,373.68C317.19,372.48 319.09,369.70 320.11,367.50C321.13,365.30 321.96,361.48 321.96,359.00C321.96,356.52 321.13,352.67 320.11,350.43C319.09,348.20 316.84,344.75 315.10,342.76C313.36,340.78 312.29,338.95 312.72,338.70C313.15,338.44 314.49,338.61 315.71,339.07C316.92,339.53 319.26,341.76 320.91,344.03C322.55,346.30 324.42,349.73 325.05,351.66C325.69,353.59 326.03,358.39 325.81,362.33C325.58,366.56 324.65,371.09 323.54,373.37C322.51,375.49 319.90,378.51 317.76,380.06C315.61,381.62 311.52,383.41 308.67,384.05C304.69,384.94 302.45,384.93 299.01,384.00C296.11,383.22 293.07,381.33 290.39,378.65C287.08,375.34 286.00,373.33 285.04,368.70C284.38,365.52 284.14,361.12 284.51,358.93C284.88,356.74 286.30,352.86 287.66,350.30C289.02,347.74 290.15,344.00 290.18,341.98C290.21,339.96 289.92,337.34 289.55,336.15C289.17,334.97 288.43,334.00 287.89,334.00C287.35,334.00 284.69,336.08 281.97,338.63C279.25,341.17 275.78,345.78 274.26,348.88C271.83,353.82 271.50,355.65 271.50,364.00C271.50,371.34 271.92,374.30 273.36,377.00C274.38,378.93 277.08,382.45 279.36,384.83C281.64,387.21 284.85,389.87 286.50,390.75C288.15,391.62 290.85,392.69 292.50,393.12C294.15,393.56 298.26,393.76 301.64,393.58zM126.43,364.98C128.60,364.99 132.31,364.06 134.68,362.91C137.05,361.77 139.96,359.46 141.15,357.79C142.34,356.11 143.52,352.66 143.76,350.12C144.09,346.63 143.57,344.07 141.60,339.63C140.17,336.39 139.00,333.19 139.00,332.51C139.00,331.83 139.90,330.12 141.00,328.72C142.11,327.31 142.73,325.47 142.40,324.59C142.06,323.71 141.24,323.00 140.58,323.00C139.92,323.00 138.23,324.24 136.83,325.75C135.44,327.26 134.00,329.33 133.64,330.34C133.29,331.35 133.95,335.32 135.12,339.16C136.49,343.70 137.03,347.43 136.65,349.82C136.31,352.01 135.02,354.41 133.48,355.75C132.05,356.99 129.88,358.00 128.64,358.00C127.41,358.00 124.51,356.61 122.20,354.91C119.46,352.90 118.00,351.06 118.00,349.61C118.00,348.39 116.72,345.62 115.15,343.45C113.58,341.28 111.78,337.97 111.15,336.10C110.52,334.23 110.00,330.63 110.00,328.09C110.00,325.56 110.44,321.95 110.98,320.08C111.51,318.21 113.18,314.91 114.68,312.75C116.17,310.58 120.12,306.92 123.45,304.60C126.78,302.28 130.76,299.85 132.30,299.19C133.84,298.54 137.63,298.00 140.73,298.00C144.37,298.00 147.87,298.73 150.60,300.05C152.93,301.18 155.65,303.31 156.65,304.80C158.16,307.05 158.52,310.12 158.84,323.27C159.18,337.68 159.38,339.13 161.16,340.09C162.24,340.66 167.48,341.97 172.81,343.00C178.14,344.02 188.12,345.40 195.00,346.07C203.23,346.86 214.84,347.05 229.00,346.61C240.82,346.25 252.63,345.59 255.24,345.14C259.38,344.42 260.74,343.48 266.13,337.60C270.49,332.84 274.27,329.88 279.10,327.45C285.09,324.43 286.05,323.56 286.96,320.26C287.53,318.19 288.39,315.89 288.87,315.14C289.36,314.40 291.92,313.38 294.57,312.89C297.22,312.39 300.31,312.27 301.44,312.61C302.57,312.95 304.68,314.33 306.13,315.69C308.76,318.15 308.76,318.15 337.13,314.01C352.73,311.74 377.20,307.89 391.50,305.47C405.80,303.05 423.57,300.13 431.00,298.98C438.43,297.82 448.10,296.45 452.50,295.92C456.90,295.39 470.40,294.53 482.50,294.01C494.60,293.49 512.47,292.14 522.22,291.01C531.97,289.88 553.79,287.61 570.72,285.97C587.65,284.33 608.92,282.07 618.00,280.97C627.08,279.86 638.30,278.26 642.94,277.41C647.59,276.56 652.20,275.43 653.19,274.90C654.77,274.05 654.99,272.57 654.92,263.21C654.87,257.32 654.51,249.91 654.11,246.75C653.71,243.52 652.50,239.80 651.36,238.25C650.24,236.74 647.48,234.47 645.22,233.21C642.96,231.95 636.81,229.82 631.56,228.49C626.30,227.16 621.39,226.30 620.64,226.59C619.89,226.87 618.69,228.21 617.96,229.57C617.08,231.22 614.99,232.53 611.57,233.56C608.78,234.40 602.00,235.82 596.50,236.72C589.73,237.82 579.88,238.37 566.00,238.43C546.60,238.50 545.27,238.38 541.22,236.25C538.87,235.01 534.05,231.55 530.51,228.55C526.98,225.55 522.76,222.41 521.15,221.58C519.53,220.74 516.02,219.56 513.35,218.96C509.83,218.17 503.41,218.18 490.00,218.99C479.82,219.61 461.60,220.99 449.50,222.06C437.40,223.13 422.10,224.47 415.50,225.04C408.90,225.60 391.80,227.18 377.50,228.54C363.20,229.90 350.06,231.25 348.31,231.54C345.53,232.00 344.86,232.75 343.14,237.35C342.06,240.25 339.55,247.57 337.58,253.62C334.81,262.10 333.25,265.31 330.75,267.66C328.96,269.33 325.63,271.43 323.34,272.31C321.05,273.19 315.65,274.80 311.34,275.89C307.03,276.98 297.43,278.78 290.00,279.89C282.57,281.00 270.15,282.60 262.38,283.44C254.61,284.29 241.79,285.27 233.88,285.63C225.16,286.02 213.99,285.79 205.50,285.06C195.26,284.16 186.90,282.66 174.37,279.44C164.95,277.02 154.09,273.91 150.25,272.52C146.40,271.13 141.29,270.03 138.88,270.07C136.47,270.11 131.57,270.89 128.00,271.82C124.42,272.74 121.58,273.94 121.68,274.47C121.79,275.00 128.76,277.51 137.18,280.05C145.61,282.59 161.95,287.88 173.50,291.80C185.05,295.72 198.78,299.69 204.00,300.62C210.65,301.81 218.91,302.32 231.50,302.31C243.93,302.30 259.86,301.31 283.00,299.12C301.43,297.37 326.62,294.80 339.00,293.41C351.38,292.02 370.86,289.83 382.31,288.55C393.76,287.26 403.27,286.05 403.45,285.86C403.64,285.66 403.48,283.70 403.10,281.50C402.72,279.30 402.77,275.48 403.22,273.02C403.66,270.55 405.28,266.98 406.82,265.08C408.36,263.18 410.78,260.76 412.19,259.70C413.61,258.65 416.79,257.55 419.27,257.27C421.74,256.99 425.40,257.31 427.41,257.97C429.41,258.63 432.45,260.35 434.16,261.79C435.87,263.23 437.89,265.88 438.64,267.67C439.39,269.47 440.00,272.86 440.00,275.22C440.00,277.57 439.21,281.07 438.25,282.98C437.29,284.89 435.02,287.45 433.21,288.65C431.07,290.08 427.76,291.03 423.71,291.36C420.30,291.65 411.43,292.35 404.00,292.92C396.57,293.49 373.62,295.52 353.00,297.44C332.38,299.36 300.88,302.09 283.00,303.52C263.19,305.11 242.89,306.13 231.00,306.14C214.92,306.15 209.70,305.78 201.26,304.02C195.62,302.84 184.37,299.60 176.26,296.81C168.14,294.03 155.43,289.73 148.00,287.27C140.57,284.80 130.46,281.20 125.53,279.26C117.33,276.03 116.35,275.86 114.03,277.15C112.28,278.14 111.28,279.79 110.77,282.54C110.38,284.72 109.77,292.71 109.42,300.30C108.86,312.61 108.55,314.39 106.54,316.80C105.31,318.28 103.72,320.59 103.02,321.93C102.32,323.26 101.76,326.70 101.79,329.57C101.81,332.43 102.53,336.12 103.38,337.77C104.23,339.42 106.63,342.36 108.71,344.31C110.80,346.26 113.62,348.77 115.00,349.89C117.50,351.93 117.50,351.93 115.25,351.97C113.90,351.99 113.00,352.62 113.00,353.55C113.00,354.40 113.66,356.37 114.46,357.93C115.27,359.48 117.40,361.70 119.21,362.86C121.11,364.07 124.17,364.97 126.43,364.98zM128.21,351.00C128.68,351.00 129.30,350.39 129.58,349.65C129.86,348.91 128.95,345.26 127.55,341.53C126.15,337.81 125.00,332.99 125.00,330.83C125.00,328.67 125.66,325.63 126.46,324.08C127.26,322.53 130.14,319.26 132.85,316.83C135.56,314.39 139.68,311.77 142.01,311.00C145.83,309.74 146.36,309.77 147.49,311.32C148.18,312.26 149.05,315.28 149.41,318.03C149.77,320.78 150.33,323.69 150.64,324.51C150.95,325.32 151.61,325.74 152.10,325.44C152.60,325.13 153.00,321.06 153.00,316.39C153.00,308.52 152.81,307.73 150.38,305.47C148.94,304.14 146.17,302.75 144.24,302.38C142.00,301.96 138.78,302.34 135.40,303.40C131.83,304.53 128.23,306.76 124.48,310.19C121.40,313.01 118.01,317.02 116.94,319.11C115.82,321.32 115.00,324.94 115.00,327.73C115.00,331.54 115.84,333.98 119.07,339.52C121.31,343.36 124.09,347.51 125.25,348.75C126.40,349.99 127.73,351.00 128.21,351.00zM295.69,341.00C296.48,341.00 298.00,340.53 299.07,339.96C300.79,339.04 301.00,337.79 301.00,328.46C301.00,318.00 301.00,318.00 298.12,318.00C296.54,318.00 294.69,318.67 294.01,319.48C293.34,320.30 292.54,324.79 292.25,329.46C291.87,335.51 292.08,338.40 292.98,339.48C293.68,340.32 294.89,341.00 295.69,341.00zM603.98,340.00C607.50,340.00 609.75,339.27 613.08,337.04C615.51,335.41 618.62,332.41 620.00,330.36C622.13,327.19 622.50,325.51 622.47,319.07C622.45,313.99 621.90,310.51 620.80,308.50C619.90,306.85 617.31,303.59 615.04,301.25C611.55,297.64 610.32,297.00 606.91,297.00C604.71,297.00 601.62,297.66 600.05,298.47C598.48,299.28 595.65,301.76 593.76,303.97C591.87,306.18 589.80,309.73 589.16,311.86C588.52,313.99 588.00,318.17 588.00,321.15C588.00,324.79 588.74,328.04 590.25,331.03C591.49,333.48 594.03,336.50 595.90,337.74C598.21,339.28 600.79,340.00 603.98,340.00zM605.82,336.00C604.16,336.00 601.73,334.84 599.82,333.13C596.95,330.57 596.57,329.57 596.19,323.72C595.83,317.99 596.13,316.54 598.60,312.00C600.15,309.15 602.51,305.96 603.84,304.91C605.18,303.86 607.33,303.00 608.63,303.00C609.94,303.00 611.00,303.36 611.00,303.80C611.00,304.24 609.15,306.37 606.88,308.55C604.62,310.72 602.14,313.95 601.38,315.72C600.62,317.49 600.00,320.77 600.00,323.01C600.00,325.98 600.65,327.74 602.39,329.48C603.70,330.79 606.48,332.19 608.55,332.58C612.03,333.23 612.18,333.39 610.47,334.64C609.45,335.39 607.36,336.00 605.82,336.00zM416.50,287.62C417.07,287.44 417.35,284.82 417.16,281.56C416.81,275.81 416.81,275.81 418.91,277.91C420.31,279.31 422.28,280.00 424.85,280.00C427.29,280.00 429.29,279.34 430.33,278.18C431.24,277.19 432.24,275.05 432.56,273.43C432.88,271.82 432.67,269.26 432.10,267.75C431.52,266.24 429.58,264.08 427.77,262.95C425.42,261.47 423.42,261.03 420.65,261.37C418.54,261.62 415.66,262.89 414.27,264.17C412.88,265.45 411.13,267.95 410.37,269.72C409.62,271.49 409.00,274.55 409.00,276.52C409.00,278.49 409.67,281.40 410.50,283.00C411.32,284.60 412.79,286.36 413.75,286.92C414.71,287.48 415.95,287.79 416.50,287.62zM506.00,285.85C504.62,285.82 502.15,285.47 500.50,285.07C498.85,284.67 496.45,283.70 495.17,282.92C493.88,282.14 491.90,279.70 490.76,277.50C489.39,274.87 488.68,271.61 488.68,268.00C488.68,264.40 489.40,261.12 490.75,258.50C491.89,256.30 494.10,253.29 495.66,251.81C497.22,250.34 499.77,248.65 501.32,248.06C502.86,247.48 505.57,247.00 507.33,247.00C509.09,247.00 512.10,247.83 514.02,248.84C516.11,249.95 518.80,252.82 520.75,256.05C523.29,260.25 524.00,262.51 523.98,266.46C523.97,269.23 523.13,273.30 522.12,275.50C521.11,277.70 519.35,280.33 518.21,281.35C517.07,282.36 514.42,283.80 512.32,284.55C510.22,285.30 507.38,285.89 506.00,285.85zM232.00,281.33C237.78,281.09 247.68,280.45 254.00,279.91C260.32,279.37 270.45,278.25 276.50,277.41C282.55,276.57 292.86,274.99 299.41,273.89C305.96,272.80 312.40,271.33 313.73,270.63C315.79,269.55 315.93,269.19 314.69,268.15C313.88,267.49 310.26,266.32 306.64,265.56C300.77,264.34 298.87,264.38 289.27,266.00C283.35,266.99 273.47,268.31 267.32,268.92C259.05,269.75 254.26,269.75 248.86,268.91C243.59,268.09 241.47,268.08 241.21,268.88C241.01,269.48 240.09,270.90 239.17,272.04C238.25,273.17 235.70,274.52 233.50,275.03C231.30,275.54 227.36,275.96 224.75,275.98C220.00,276.00 220.00,276.00 220.02,267.25C220.02,262.44 220.36,258.02 220.77,257.43C221.17,256.84 222.25,256.08 223.18,255.74C224.10,255.40 225.31,255.67 225.87,256.35C226.43,257.02 227.03,260.48 227.20,264.04C227.48,270.15 227.63,270.50 229.95,270.50C231.72,270.50 232.60,269.80 233.11,268.00C233.49,266.62 233.85,261.73 233.90,257.12C234.00,248.74 234.00,248.74 229.75,249.43C227.41,249.80 218.30,250.75 209.50,251.53C200.70,252.32 189.11,252.97 183.75,252.98C174.00,253.00 174.00,253.00 174.00,264.05C174.00,275.10 174.00,275.10 177.25,276.45C179.04,277.20 184.78,278.32 190.00,278.96C195.22,279.59 204.45,280.48 210.50,280.94C216.55,281.39 226.22,281.57 232.00,281.33zM507.47,280.00C508.64,280.00 510.14,279.46 510.80,278.80C511.46,278.14 512.00,276.56 512.00,275.30C512.00,273.67 511.42,273.00 510.00,273.00C508.90,273.00 507.10,273.90 506.00,275.00C504.90,276.10 504.00,277.38 504.00,277.83C504.00,278.29 504.30,278.97 504.67,279.33C505.03,279.70 506.29,280.00 507.47,280.00zM166.77,271.56C167.17,271.17 167.99,266.49 168.58,261.17C169.17,255.85 169.59,251.40 169.52,251.27C169.44,251.15 168.28,250.92 166.94,250.77C164.51,250.50 164.50,250.55 164.50,259.50C164.50,264.45 164.85,269.35 165.27,270.39C165.70,271.43 166.37,271.96 166.77,271.56zM156.27,269.92C156.70,269.96 157.43,268.99 157.89,267.75C158.35,266.51 158.96,261.31 159.24,256.18C159.75,247.00 159.72,246.84 157.31,245.93C155.79,245.35 154.20,245.36 153.08,245.96C151.93,246.57 151.05,248.60 150.64,251.60C150.29,254.17 150.00,258.38 150.00,260.95C150.00,263.52 150.56,266.33 151.25,267.19C151.94,268.06 153.18,269.01 154.00,269.31C154.82,269.60 155.85,269.88 156.27,269.92zM507.44,265.62C508.84,264.69 509.50,263.18 509.50,260.88C509.50,258.08 509.09,257.44 507.11,257.16C505.80,256.98 504.34,257.43 503.88,258.16C503.41,258.90 503.02,260.65 503.02,262.05C503.01,263.45 503.54,265.14 504.19,265.79C505.12,266.72 505.85,266.68 507.44,265.62zM323.83,265.43C324.56,265.19 325.57,265.00 326.06,265.00C326.55,265.00 327.69,263.57 328.59,261.82C329.50,260.07 334.18,248.03 338.99,235.07C343.81,222.11 350.10,205.88 352.98,199.00C355.86,192.12 359.26,184.45 360.53,181.94C361.80,179.43 363.55,176.79 364.42,176.06C365.74,174.97 366.00,175.00 366.00,176.25C366.00,177.07 365.14,180.39 364.09,183.62C363.04,186.85 360.08,194.90 357.51,201.50C354.95,208.10 351.88,216.06 350.69,219.19C349.51,222.31 348.85,225.18 349.23,225.57C349.61,225.95 355.90,225.70 363.21,225.02C370.52,224.35 378.52,223.48 381.00,223.11C385.26,222.46 385.48,222.27 385.21,219.46C385.05,217.83 384.85,213.57 384.75,210.00C384.61,204.71 385.07,202.57 387.20,198.50C388.64,195.75 391.13,192.25 392.73,190.73C394.34,189.21 397.19,187.52 399.07,186.98C400.95,186.44 403.93,186.27 405.69,186.60C407.46,186.93 410.44,188.70 412.33,190.53C414.21,192.36 416.78,195.97 418.03,198.56C419.86,202.34 420.29,204.84 420.20,211.27C420.10,219.28 420.10,219.28 432.25,218.57C438.93,218.18 445.20,217.43 446.17,216.91C447.59,216.15 447.75,215.47 446.97,213.42C446.44,212.02 446.00,209.10 446.00,206.94C446.00,203.86 446.63,202.45 448.95,200.39C450.57,198.95 452.58,195.74 453.43,193.26C454.96,188.75 454.96,188.75 450.89,189.40C447.82,189.89 446.92,189.74 447.23,188.78C447.47,188.07 449.15,186.49 450.97,185.25C452.80,184.01 455.74,183.00 457.51,183.00C459.28,183.00 461.92,183.93 463.37,185.07C464.82,186.21 467.18,189.15 468.61,191.60C470.52,194.86 471.26,197.59 471.36,201.78C471.44,204.93 471.13,209.24 470.68,211.36C469.87,215.22 469.87,215.22 479.18,214.50C484.31,214.10 490.30,213.47 492.50,213.09C496.38,212.42 496.49,212.29 496.28,208.67C496.15,206.63 493.13,196.18 489.55,185.46C485.97,174.75 481.87,163.49 480.43,160.45C479.00,157.41 476.71,154.20 475.35,153.31C473.18,151.89 470.01,151.77 449.19,152.30C436.16,152.64 413.80,153.93 399.50,155.18C385.20,156.42 366.20,157.45 357.28,157.46C341.06,157.49 341.06,157.49 338.85,163.49C337.63,166.80 333.61,176.03 329.93,184.00C326.25,191.97 319.34,206.08 314.57,215.35C309.80,224.61 303.67,235.78 300.95,240.18C297.07,246.44 296.00,249.06 296.02,252.33C296.02,254.62 296.37,257.04 296.79,257.70C297.21,258.36 303.17,260.47 310.03,262.38C316.89,264.30 323.10,265.67 323.83,265.43zM578.00,264.56C571.67,265.03 569.18,264.86 568.25,263.89C567.56,263.18 567.00,261.81 567.00,260.84C567.00,259.86 567.79,258.66 568.75,258.15C569.71,257.64 576.12,256.71 583.00,256.07C589.88,255.44 603.02,254.01 612.22,252.90C621.42,251.79 631.09,251.03 633.72,251.19C638.28,251.49 638.50,251.64 638.50,254.46C638.50,257.07 638.06,257.50 634.74,258.19C632.67,258.62 620.97,260.09 608.74,261.45C596.51,262.81 582.67,264.21 578.00,264.56zM264.68,261.97C264.78,261.99 268.38,261.53 272.68,260.95C276.98,260.38 282.07,259.41 284.00,258.81C285.93,258.20 287.78,257.28 288.13,256.74C288.47,256.21 288.53,254.93 288.26,253.89C287.94,252.66 286.88,252.00 285.21,252.00C283.81,252.00 278.80,252.69 274.08,253.53C269.36,254.37 264.49,255.28 263.25,255.55C261.86,255.85 261.00,256.78 261.00,257.97C261.00,259.03 261.79,260.36 262.75,260.92C263.71,261.48 264.58,261.95 264.68,261.97zM252.16,261.00C254.21,261.00 256.10,260.64 256.38,260.20C256.65,259.76 256.56,258.93 256.18,258.34C255.81,257.76 253.25,256.88 250.50,256.38C246.51,255.67 245.44,255.06 245.20,253.36C244.90,251.32 245.40,251.20 256.20,250.58C262.41,250.23 271.13,249.47 275.57,248.89C280.00,248.32 284.25,247.46 285.00,247.00C286.16,246.28 286.16,245.90 285.00,244.50C284.25,243.60 281.81,241.92 279.58,240.78C275.82,238.87 274.46,238.76 261.01,239.38C253.03,239.75 245.04,240.31 243.25,240.64C241.02,241.04 240.00,241.79 240.00,243.01C240.00,243.99 240.91,247.75 242.03,251.36C243.26,255.34 244.92,258.53 246.25,259.46C247.46,260.31 250.12,261.00 252.16,261.00zM188.00,248.88C193.78,248.93 200.16,248.70 202.20,248.37C204.96,247.91 205.97,247.22 206.20,245.63C206.46,243.78 207.26,243.46 212.27,243.20C216.46,242.98 218.47,243.32 219.59,244.45C220.45,245.30 222.43,246.00 224.01,246.00C225.58,246.00 228.02,245.56 229.43,245.02C230.85,244.49 232.00,243.60 232.00,243.05C232.00,242.50 230.65,241.35 228.99,240.50C227.34,239.64 221.15,238.45 215.24,237.86C206.00,236.93 201.99,237.07 186.50,238.86C176.60,240.01 166.81,241.43 164.75,242.02C162.69,242.61 161.00,243.45 161.00,243.89C161.00,244.32 162.69,245.22 164.75,245.88C166.81,246.54 170.53,247.47 173.00,247.93C175.47,248.40 182.22,248.83 188.00,248.88zM291.05,243.00C292.33,243.00 294.75,239.54 299.30,231.25C302.84,224.79 312.17,206.69 320.04,191.04C329.60,172.02 335.66,161.15 338.30,158.29C341.19,155.15 343.03,154.00 345.13,154.00C346.71,154.00 351.94,153.34 356.75,152.53C361.56,151.72 374.73,150.15 386.00,149.04C397.27,147.93 412.35,146.59 419.50,146.07C426.65,145.54 438.68,144.81 446.23,144.44C453.79,144.06 459.76,143.42 459.50,143.00C459.24,142.58 456.21,141.75 452.76,141.16C449.32,140.57 444.34,139.81 441.69,139.47C439.05,139.14 428.47,138.87 418.19,138.88C407.91,138.90 393.20,139.39 385.50,139.99C377.80,140.58 365.88,141.74 359.00,142.57C352.12,143.41 342.71,144.77 338.07,145.61C333.44,146.45 328.43,147.76 326.93,148.53C325.44,149.31 322.44,152.76 320.27,156.22C318.10,159.67 312.26,170.38 307.29,180.00C302.32,189.62 294.76,203.57 290.48,211.00C286.20,218.43 281.64,226.07 280.35,227.98C279.06,229.90 278.00,232.22 278.00,233.14C278.00,234.06 279.95,235.95 282.33,237.35C284.71,238.74 287.24,240.59 287.95,241.44C288.66,242.30 290.06,243.00 291.05,243.00zM560.17,225.63C566.04,225.56 571.17,225.17 571.57,224.77C571.97,224.36 572.34,219.19 572.40,213.27C572.50,202.50 572.50,202.50 559.74,201.79C552.72,201.40 543.94,200.67 540.24,200.17C536.53,199.67 532.90,199.49 532.16,199.77C531.14,200.16 530.90,202.67 531.16,210.61C531.43,218.87 531.86,221.29 533.28,222.72C534.51,223.94 537.33,224.70 542.28,225.13C546.25,225.48 554.30,225.70 560.17,225.63zM588.22,224.55C591.50,224.18 595.20,223.49 596.44,223.02C598.51,222.24 598.74,221.35 599.31,211.94C599.65,206.31 599.66,201.26 599.33,200.72C598.98,200.15 596.34,199.99 593.01,200.34C589.86,200.67 586.16,201.37 584.78,201.89C582.40,202.80 582.23,203.38 581.56,212.89C581.16,218.42 581.16,223.45 581.55,224.08C582.03,224.86 584.16,225.01 588.22,224.55zM523.89,215.00C524.38,215.00 525.06,214.29 525.39,213.42C525.73,212.55 526.00,208.94 526.00,205.40C526.00,199.45 525.80,198.87 523.43,197.79C521.35,196.84 520.68,196.89 519.94,198.06C519.44,198.85 519.02,202.09 519.02,205.25C519.00,209.68 519.46,211.46 521.00,213.00C522.10,214.10 523.40,215.00 523.89,215.00zM394.45,211.00C395.18,211.00 396.73,210.21 397.89,209.25C399.14,208.22 400.36,205.56 400.87,202.76C401.48,199.44 401.38,197.54 400.54,196.39C399.74,195.29 398.64,194.98 397.20,195.44C396.02,195.81 394.21,197.33 393.17,198.81C392.14,200.29 391.01,202.65 390.67,204.07C390.29,205.65 390.64,207.47 391.58,208.82C392.43,210.02 393.71,211.00 394.45,211.00zM572.00,197.35C581.08,197.10 590.83,196.44 593.67,195.89C596.52,195.34 599.37,194.26 600.01,193.49C600.65,192.71 600.86,191.14 600.48,189.93C599.89,188.07 599.30,187.86 596.15,188.40C594.14,188.75 588.94,189.50 584.60,190.07C579.10,190.79 570.78,190.77 557.26,190.01C546.57,189.41 534.01,188.26 529.34,187.44C524.68,186.63 520.44,186.23 519.93,186.54C519.42,186.86 519.01,187.88 519.02,188.81C519.02,189.74 519.39,191.07 519.84,191.77C520.28,192.47 524.49,193.71 529.19,194.53C533.89,195.35 541.73,196.43 546.62,196.92C551.50,197.42 562.92,197.61 572.00,197.35zM569.50,186.27C576.10,186.07 585.23,185.42 589.79,184.84C594.59,184.23 598.71,183.15 599.59,182.27C600.42,181.44 600.96,180.04 600.79,179.16C600.62,178.29 599.06,176.61 597.31,175.43C595.56,174.25 591.51,172.77 588.30,172.14C585.10,171.51 577.99,170.56 572.49,170.02C567.00,169.49 557.77,169.04 552.00,169.03C546.23,169.02 539.76,169.49 537.63,170.09C535.50,170.68 534.15,171.51 534.63,171.94C535.11,172.37 538.76,173.55 542.75,174.55C546.74,175.56 550.00,176.75 550.00,177.19C550.00,177.64 547.10,178.00 543.57,178.00C540.03,178.00 535.98,177.56 534.57,177.02C532.98,176.42 532.00,175.28 532.00,174.02C532.00,172.91 531.52,172.00 530.94,172.00C530.36,172.00 527.87,172.51 525.41,173.13C522.95,173.75 520.50,175.06 519.97,176.05C519.44,177.04 519.26,178.52 519.57,179.33C519.88,180.13 522.02,181.26 524.32,181.82C526.62,182.39 533.23,183.55 539.00,184.41C544.77,185.27 551.30,186.12 553.50,186.31C555.70,186.49 562.90,186.47 569.50,186.27z" />

</svg>
